ply
format ascii 1.0
element vertex 704
property float x
property float y
property float z
property uchar red
property uchar green
property uchar blue
end_header
-5.331796 1.040365 113.270924 4 1 0
-7.196712 2.755579 132.838819 1 1 0
-6.277802 2.943365 113.229841 5 1 5
-6.874579 2.154762 134.142724 46 48 45
-12.276245 -1.800776 160.313852 252 254 241
-11.987990 -1.710883 160.344077 219 201 162
0.185253 2.321680 160.753900 46 48 45
-3.483001 2.988273 113.335463 5 1 0
-4.891916 -0.678742 113.322299 6 1 1
-6.564739 3.298070 113.244499 1 0 7
-7.186199 1.683149 115.333178 46 48 45
-4.959315 1.471454 113.296324 46 48 45
-4.215820 1.860750 113.499008 45 48 45
-4.437998 3.783043 113.287964 7 1 1
-3.493877 3.982562 113.358077 5 0 11
-12.753808 -1.800489 160.257500 252 252 244
-12.758420 -1.740908 160.238405 215 205 153
-7.988957 -1.706744 160.709537 254 247 237
-11.033361 -1.777346 160.442274 222 208 154
-1.987184 1.384324 113.379424 46 48 45
-3.055469 -0.911748 113.400342 8 1 0
-4.557817 1.629160 113.288575 46 48 45
-7.411439 1.910662 132.591980 251 253 250
-7.708314 3.818048 113.243855 180 176 168
-7.058339 3.302804 113.152780 229 106 203
-11.334802 -1.776332 160.419253 224 202 145
-10.250015 -1.713472 160.538834 253 252 241
-12.567664 -1.789106 160.264016 254 253 244
-12.758411 -1.742950 160.238535 217 207 151
-10.267330 -1.718400 160.556393 250 253 244
-8.912371 -1.534653 142.388739 199 184 148
-3.488185 1.851717 114.650501 46 48 45
-4.735359 1.240279 113.285202 7 1 0
-7.142072 2.300065 132.839728 198 188 169
-5.406524 0.372043 113.254705 97 206 102
-5.427071 -0.286421 113.284474 4 1 1
-12.589407 -1.733686 160.265176 253 254 246
-7.598450 1.823267 128.367642 46 48 45
-4.570018 -0.998579 113.325712 6 1 2
-11.159320 -1.718235 160.427952 249 252 243
-5.535239 0.837802 113.268776 5 1 0
-6.564423 3.298566 113.229994 1 0 8
-5.407227 0.370018 113.297561 102 204 105
-3.107231 -0.702925 113.391319 12 1 0
-2.303794 1.631475 113.400740 46 48 45
-2.329483 1.207842 113.411872 4 5 2
-12.392654 -1.724686 160.306320 215 205 162
-10.091155 -1.714997 160.563410 231 200 132
-11.716212 -1.727703 160.365473 252 255 237
-6.484567 1.644221 111.867791 46 48 45
-6.551498 3.058957 113.226739 3 1 8
-5.522027 3.770113 113.263605 1 3 12
-4.434645 2.353361 113.292471 4 1 2
-1.120490 -0.150665 113.508219 219 202 149
-2.764492 1.464259 115.379547 46 48 45
-12.503179 -1.697320 160.256474 254 253 242
-7.737289 3.817264 113.165323 219 240 98
-1.381547 1.991409 113.481820 198 228 205
-5.409553 0.371424 113.285627 95 204 99
-1.994867 1.205496 113.442905 8 1 1
-4.817263 1.158548 113.282462 5 1 0
-2.067903 1.281817 113.347778 54 234 212
-4.295845 1.169165 113.303392 49 224 113
-7.231154 2.720964 132.836924 197 200 197
-10.673727 -1.795703 160.462568 254 253 250
-12.541332 -1.700290 160.308856 221 205 152
-9.392641 2.301141 160.550794 46 48 45
-5.283864 0.032461 5.665473 46 48 45
-9.990064 -1.806156 160.547641 252 252 239
-8.462601 1.538553 132.788532 201 201 198
-5.655877 2.536539 175.239652 46 48 45
-1.178653 2.179815 113.800881 193 186 167
-4.773882 1.846655 113.728821 46 48 45
-2.873978 -0.676626 113.404657 9 1 0
-4.381557 1.256521 113.303423 10 3 3
-8.131174 1.910917 132.836891 46 48 45
-1.384301 1.957478 113.372830 190 184 166
-11.819665 -1.782276 160.359000 253 254 252
-12.790687 2.311404 160.226528 250 252 249
-2.933769 -0.642900 113.409461 11 2 0
-1.377672 1.994757 113.448570 195 229 204
-8.313890 -1.731558 160.686765 225 203 150
-10.263377 -1.793229 160.553779 254 254 238
-6.565767 3.083483 113.230073 3 1 4
-2.564440 2.902715 113.381742 62 177 164
-5.427277 -0.592698 113.294656 6 1 1
-8.384435 1.906247 132.261046 251 253 250
-11.034302 -1.730173 160.440975 255 255 245
-8.443243 -1.722207 160.667647 226 202 143
-4.209744 1.255296 113.303147 5 3 0
-10.747009 -1.763898 160.472309 253 249 248
-4.021431 1.930877 113.286474 46 49 46
-2.552727 1.679340 114.691376 46 48 45
-6.250879 3.431022 113.228889 3 1 11
-2.723445 3.059815 113.390001 3 3 2
-4.582086 2.033506 113.239938 200 185 162
-8.496337 0.125679 132.797006 3 4 4
-3.379537 3.868540 113.348550 6 3 11
-2.837853 -0.830142 113.409169 6 1 0
-5.517345 0.977035 113.266434 4 2 1
-9.953851 -1.719610 160.550790 250 251 245
-2.926638 1.403027 111.021309 46 48 45
-4.571528 -0.997326 113.334318 4 1 2
-9.343369 -1.704524 160.593275 222 200 160
-2.401699 3.062541 113.417498 3 1 1
-5.520386 4.007782 113.266135 1 2 12
-5.253657 0.977615 113.268566 5 2 1
-7.090392 3.313772 113.254717 196 175 183
-8.384435 1.906247 132.261046 251 253 250
-9.001899 -1.738998 160.559715 231 203 135
-10.024063 -1.720992 160.543423 253 252 246
-2.074746 1.864583 115.557737 46 48 45
-1.590866 1.789827 123.855625 46 48 45
-4.021207 3.833202 113.317676 13 1 1
-3.470433 3.926463 113.341959 5 1 7
-4.829887 1.270193 113.257030 188 188 154
-7.903111 3.715414 113.141652 240 247 230
-5.733815 -0.286266 113.271514 6 1 1
-10.268638 -1.749979 160.528686 253 249 244
-10.977416 -1.689318 160.441388 255 252 241
-11.721479 -1.786138 160.365030 250 251 243
-4.113560 1.530033 105.503634 46 48 45
-6.085404 3.246635 113.233165 2 1 5
-7.112848 1.674634 114.529782 46 48 45
-7.394413 2.967605 113.210860 227 111 199
-0.914051 2.351983 113.526080 136 67 181
-5.497586 4.000220 113.271556 0 4 9
-5.148678 1.239958 113.271731 6 1 0
-2.933207 -0.924250 113.412794 9 1 0
-1.831276 1.634971 114.172579 46 48 45
-8.047143 -1.755860 160.662290 255 247 244
-12.566499 2.312150 160.254135 46 48 45
-6.162818 -0.560755 113.270516 15 1 0
-10.710023 -1.778083 160.476304 211 202 155
-10.815331 -1.747130 160.464998 233 203 141
-3.686934 -1.091486 113.392107 73 86 72
-7.054144 3.271479 113.132875 205 172 190
-6.113771 -0.343875 113.266800 11 0 0
-4.049738 3.799973 113.307587 6 2 1
-4.106924 1.628651 113.307674 46 48 45
-4.436488 1.946670 113.288194 9 2 2
-6.328214 -0.530457 113.263129 17 1 1
-8.242983 -1.742931 160.686424 220 201 154
-6.101780 3.083299 113.219020 3 1 4
-6.098187 -0.368308 113.262792 12 1 0
-9.706099 -1.738208 160.574028 223 202 151
-4.892781 -0.677319 113.322976 7 1 1
-7.112680 1.482797 113.695826 46 48 45
-2.074212 2.018741 139.074286 46 48 45
-4.104572 1.290242 113.306465 206 191 155
-4.136634 3.734343 113.307315 9 1 0
-3.681908 -1.091549 113.303985 74 87 70
-1.280329 -0.184337 113.503413 6 1 1
-3.482744 3.497073 113.337324 6 0 0
-12.423046 -1.710866 160.297200 254 248 241
-7.609336 3.946226 113.134034 214 248 93
-8.528314 1.906303 132.272021 250 252 249
-6.179898 -0.568138 113.273035 13 0 0
-4.692557 1.466772 110.993783 46 48 45
-4.892693 -0.998541 113.329294 10 1 0
-4.346220 0.132216 3.011240 251 253 250
-8.235879 1.077766 113.247789 6 2 0
-4.840801 1.146584 113.281028 6 1 0
-4.995389 1.130842 113.277290 6 1 0
-8.460356 1.906517 132.299071 251 253 250
-5.656992 3.975861 113.271467 1 3 16
-4.650252 1.461715 115.117868 46 48 45
-8.849146 -1.717276 160.644387 213 198 166
-3.990914 1.393018 112.677772 46 48 45
-3.428215 1.477833 111.962494 46 48 45
-4.572340 -0.678090 113.339912 5 1 1
-11.033292 -1.778362 160.440099 222 208 154
-7.951040 1.706492 131.622652 46 48 45
-5.456156 -1.029022 113.293342 2 5 1
-2.640999 2.843722 117.608960 3 2 0
-10.259656 -1.802227 160.517986 254 254 249
-9.989565 -1.805638 160.541702 252 252 240
-12.589400 -1.752800 160.282930 231 228 201
-7.437351 2.135254 132.042379 46 48 45
-6.162947 -0.304378 113.267697 17 1 0
-11.341006 -1.712591 160.407895 218 202 157
-4.891731 -0.997259 113.333622 8 2 1
-1.773091 1.463360 113.045223 46 48 45
-3.117810 -0.735300 113.344817 7 2 0
-2.754098 1.630765 113.373800 46 48 45
-4.266810 1.629046 113.302037 249 251 248
-5.733866 -0.592750 113.280535 12 1 0
-10.334393 -1.713057 160.521247 254 255 236
-4.889622 -0.997672 113.310367 10 5 3
-8.779561 -1.777581 160.592827 221 206 151
-12.426360 -1.789966 160.280695 255 248 239
-11.270614 -1.725052 160.415839 224 205 148
-2.591791 1.321728 113.409767 210 189 155
-4.832341 1.677045 114.590020 46 48 45
-4.022845 2.354079 113.316561 5 1 3
-4.210395 1.254329 113.311690 4 2 1
-4.707453 1.308477 113.270788 5 2 1
-3.483494 3.496300 113.337042 6 0 0
-1.288248 1.934799 113.343042 203 181 179
-10.747601 -1.738790 160.476883 254 252 238
-7.393883 2.975042 113.223107 232 106 207
-1.577059 2.040443 142.942504 46 48 45
-12.328387 -1.924779 174.099334 223 206 152
-4.931849 0.854236 113.406412 85 206 90
-6.547074 3.329473 113.218658 1 0 7
-10.536582 -1.797695 160.486669 255 253 244
-4.404928 1.675693 114.617355 46 48 45
-5.296393 0.762103 113.268960 3 3 0
-6.091368 -0.479451 113.266407 8 1 0
-12.787864 -1.715540 160.248435 252 254 245
-10.198612 -1.766690 160.526725 232 203 132
-9.456259 -1.740047 160.586237 252 250 243
-1.042349 2.093553 113.520608 3 3 1
-3.927041 3.687618 113.195054 186 175 180
-9.370301 1.466100 159.467783 199 190 159
-4.316463 1.679539 114.594744 46 48 45
-6.115893 3.059548 113.236582 4 1 6
-3.312392 3.877991 113.351597 5 0 13
-2.626614 3.172702 117.409639 2 2 2
-7.229011 0.160760 132.848563 198 199 195
-12.219140 -1.697087 160.320933 255 249 235
-9.392641 2.301141 160.550794 46 48 45
-6.949489 1.907481 132.330101 250 252 249
-5.494975 1.006478 113.265460 5 3 1
-2.391842 1.677892 114.703237 251 253 250
-2.722774 2.739976 113.394125 2 2 1
-8.287802 3.333240 113.181979 242 244 233
-5.129079 1.212560 113.271026 7 1 0
-6.223502 -0.430927 113.263334 229 105 138
-8.672123 1.913744 133.299957 46 48 45
-6.271991 -0.571273 113.244081 17 0 0
-9.379631 -1.794926 160.577626 255 252 247
-11.718153 -1.691816 160.376474 252 248 238
-9.506564 -1.724771 160.567914 255 254 243
-1.661188 1.486480 113.878779 46 48 45
-10.634473 -1.792718 160.484237 218 204 159
-12.082068 -1.728758 160.322730 232 201 137
-10.275289 -1.803849 160.539298 252 253 248
-4.209159 1.256926 113.305518 6 3 1
-5.575028 -0.441356 113.282210 189 184 173
-7.592392 1.907939 132.327521 46 48 45
-11.495844 -1.743325 160.402641 250 252 247
-4.471648 2.893353 82.875472 173 117 120
0.408461 2.321866 160.747289 251 253 250
-7.492600 2.094009 130.077152 46 48 45
-1.282702 -0.731778 113.546935 8 1 0
-10.250564 -1.729607 160.516297 252 248 247
-1.046900 1.943843 113.501587 44 48 44
-9.169607 2.332040 160.566817 251 253 250
-6.301296 -0.554002 113.264205 14 1 0
-6.437828 3.424738 113.231107 1 0 7
-4.078475 1.241150 113.241626 207 189 158
-7.337239 1.915289 132.562605 251 253 250
-4.735425 1.281870 113.105735 183 187 166
-1.316670 2.058325 113.405322 197 231 207
-9.799752 -1.750606 160.546914 229 205 131
-9.455583 -1.760199 160.595769 254 254 245
-4.288004 3.708669 113.303530 7 1 1
-8.461062 2.316679 132.776839 195 197 191
-7.194747 0.126056 132.852786 3 1 3
-5.463948 3.975629 113.265436 3 5 17
-5.575600 -0.435765 113.287619 189 184 172
-8.593273 -1.725315 160.642184 253 255 245
-12.173880 -1.710445 160.292976 217 200 162
-2.304494 1.341045 113.399255 58 235 210
-10.323131 -1.693900 160.582717 250 252 248
-6.580890 3.246083 113.217272 4 1 8
-8.118747 2.004774 137.571526 46 48 45
-3.026631 -0.640316 113.376686 12 1 0
-5.296205 1.019441 113.267817 1 2 0
-3.246976 3.926483 113.354089 6 1 12
-2.899980 -0.656513 113.399738 10 1 1
-8.252303 2.026633 140.541662 46 48 45
0.185253 2.321680 160.753900 46 48 45
-9.011349 1.434532 153.699258 1 2 2
-9.369409 -1.726255 160.593027 251 254 247
-2.533665 1.864257 115.529807 46 48 45
-1.583226 1.681238 114.753857 46 48 45
-3.879642 2.046816 113.318422 200 185 162
-5.290298 -0.991688 113.307493 3 6 1
-5.655772 3.977428 113.277828 1 2 11
-5.561197 3.894396 113.260997 56 169 230
-3.482986 2.988490 113.337241 5 1 0
-7.058355 3.303187 113.180011 228 108 200
-12.753808 -1.800489 160.257500 252 252 244
-8.013663 -1.602987 146.321591 254 253 247
-8.889897 -1.799050 160.647687 252 249 233
-4.344735 3.725496 113.317757 5 0 1
-3.992201 2.987220 113.319604 5 1 0
-10.289125 -1.773700 160.477187 222 207 154
-4.735359 1.240279 113.285202 7 1 0
-6.273753 -0.567595 113.266510 16 1 0
-3.884049 3.692143 113.288253 186 175 179
-11.316154 -1.737571 160.421907 249 253 252
-12.610787 -1.773299 160.277429 224 205 148
-6.978953 1.655322 117.269537 46 48 45
-5.470909 0.757681 113.264565 4 2 0
-9.277367 -1.737128 160.580764 223 204 153
-1.097259 2.090123 113.519948 198 185 163
-6.574181 3.273040 113.226051 2 1 7
-10.267330 -1.718400 160.556393 250 253 244
-4.570654 -0.997820 113.319388 4 1 1
-6.301610 -0.311131 113.261949 13 1 0
-8.552252 2.298549 132.781379 199 185 164
-2.303794 1.631475 113.400740 46 48 45
-7.399725 3.004109 113.199554 197 180 177
-8.904375 -1.552194 142.296550 210 194 158
-8.815824 -1.739125 160.626501 251 253 249
-4.227828 1.063072 111.162734 7 3 0
-10.293307 -1.802356 160.522915 253 250 245
-4.226700 1.064897 111.301538 7 4 0
-5.518281 0.804893 113.271690 3 2 0
-1.865659 1.298495 113.412118 208 190 157
-4.100139 3.756840 113.308685 9 0 0
-2.900022 -0.909761 113.409406 7 1 0
-4.890033 -0.677619 113.302581 5 2 1
-12.359424 -1.704685 160.288786 255 255 250
-10.091155 -1.714997 160.563410 231 200 132
-8.381121 1.903567 132.534067 248 250 247
-11.772034 -1.728693 160.358994 250 250 243
-6.180006 -0.297202 113.265627 15 1 0
-1.676406 1.687177 115.532900 46 48 45
-4.571426 -0.677251 113.338682 5 1 1
-6.551498 3.058957 113.226739 3 1 8
-2.250066 1.288205 113.403781 55 234 213
-2.331050 1.204904 113.402549 4 4 1
-4.381616 1.083748 113.312440 13 2 3
-3.233741 1.459748 114.808367 46 48 45
-12.674205 -1.695974 160.260450 211 202 162
-1.440742 1.934307 113.518962 202 222 196
-3.736079 1.749683 111.716606 46 48 45
-4.221585 1.061266 110.922095 6 3 0
-8.461928 0.161925 132.794728 198 199 198
-1.619777 1.862301 115.416861 46 48 45
-2.542333 1.350958 113.394552 10 1 0
-4.318004 1.483152 111.805016 46 48 45
-4.817263 1.158548 113.282462 5 1 0
-4.381840 1.255461 113.304629 9 3 1
-7.231671 2.300104 132.836212 197 199 196
-1.533818 1.821611 112.740735 46 48 45
-8.677735 -1.807488 160.634319 252 252 247
-12.790687 2.311404 160.226528 250 252 249
-11.194629 -1.804658 160.425139 252 253 240
-8.263689 2.132832 132.997714 46 48 45
-7.391580 1.975452 137.400946 248 250 247
-3.083602 -0.675132 113.392076 9 1 0
-2.564440 2.902715 113.381742 62 177 164
-8.142295 1.914196 133.328778 46 48 45
-7.201856 1.906090 132.575946 249 251 248
-11.819665 -1.782276 160.359000 253 254 252
-12.320882 -1.721154 160.344845 227 201 135
-9.003815 -1.579642 144.735589 216 198 153
-10.747009 -1.763898 160.472309 253 249 248
-8.313890 -1.731558 160.686765 225 203 150
-4.437256 1.936024 113.315295 48 49 44
-3.482747 2.987709 113.346374 5 1 0
-5.469953 3.978990 113.280422 1 1 3
-6.437864 2.956855 113.233126 4 1 5
-4.319587 3.718278 113.279629 4 1 0
-5.427309 -0.593160 113.294858 5 1 0
-2.333767 1.338253 113.379092 50 46 47
-11.034302 -1.730173 160.440975 255 255 245
-9.222277 1.702772 133.680825 46 48 45
-4.381881 1.254876 113.299641 8 3 0
-11.269848 -1.711704 160.415763 213 203 155
-5.535163 0.943625 113.268039 5 1 0
-6.194053 3.404751 113.228887 1 0 4
-9.484667 -1.748222 160.592469 216 199 153
-4.404928 1.675693 114.617355 46 48 45
-5.235829 0.944406 113.269856 4 3 0
-8.496337 0.125679 132.797006 3 4 4
-2.852601 -0.858089 113.412987 8 2 1
-4.162616 3.957437 113.364476 107 110 217
-11.229595 -1.717760 160.425430 249 252 241
-8.396056 2.035506 142.667671 46 48 45
-8.373618 -1.727028 160.682332 214 199 152
-7.397531 2.964299 113.200570 228 108 207
-5.468554 3.978569 113.292809 2 2 13
-2.723387 3.062283 113.397352 3 4 2
-3.860564 1.679547 114.618365 46 48 45
-3.930589 1.658650 112.886792 46 48 45
-12.566499 2.312150 160.254135 46 48 45
-4.484853 3.833481 113.300344 11 0 1
-4.523229 3.920983 113.295362 3 1 0
-10.314523 -1.749044 160.531231 255 253 240
-7.902063 3.714919 113.127545 239 247 230
-3.991461 3.496005 113.314736 6 1 1
-10.731347 -1.700096 160.459516 252 253 242
-8.536092 -1.757180 160.652830 230 201 133
-5.176432 1.309538 113.274856 6 2 0
-4.370864 1.849637 114.498459 46 48 45
-2.401335 2.738076 113.411339 3 2 0
-7.648059 3.941603 113.782035 182 178 165
-4.755004 1.212736 113.285866 7 1 0
-5.044803 1.270305 113.217653 187 189 152
-2.959756 -0.933445 113.402378 9 1 0
-10.915435 -1.746779 160.450411 254 250 247
-3.971798 3.956060 113.290205 2 0 2
-9.439528 -1.703268 160.560317 255 251 245
-7.210877 3.203671 113.812330 232 103 208
-10.815331 -1.747130 160.464998 233 203 141
-9.243702 -1.757120 160.596752 252 254 242
-0.914051 2.351983 113.526080 136 67 181
-2.149413 1.850638 114.700155 46 48 45
-2.400192 2.739980 113.393541 2 2 1
-5.400942 -0.981480 113.304193 1 4 1
-7.069354 1.911870 132.608352 46 48 45
-2.959916 -0.632936 113.386019 7 1 0
-11.370470 -1.740352 160.421344 249 252 248
-10.655059 -1.745449 160.404880 252 249 238
-7.912506 -1.567955 143.755931 253 253 246
-10.892034 -1.777725 160.457312 209 202 164
-4.892893 -0.677246 113.324446 7 1 1
-10.710047 -1.778646 160.476374 211 202 155
-8.124856 2.008976 137.813093 46 48 45
-6.339539 -0.343433 113.262650 13 2 1
-5.339192 1.212760 113.127625 209 191 155
-3.991338 2.987231 113.327165 8 2 1
-1.954769 1.432024 113.551452 46 48 45
-7.609336 3.946226 113.134034 214 248 93
-9.652728 -1.758460 160.558811 228 201 129
-6.101780 3.083299 113.219020 3 1 4
-8.050330 -1.753731 160.705827 255 247 245
-3.750952 1.865231 113.729886 46 48 44
-4.296479 1.168239 113.311444 48 225 112
-4.840801 1.146584 113.281028 6 1 0
-4.367948 3.734287 113.297832 9 1 0
-7.196712 2.755579 132.838819 1 1 0
-1.036562 -0.775915 120.822080 6 0 1
-7.690885 1.708696 134.058794 46 48 45
-8.402171 -1.724010 160.661047 255 255 243
-8.915284 -1.712772 160.602769 217 201 163
-3.974630 3.952285 113.327452 3 0 3
-3.028818 -0.926331 113.409352 9 1 0
-6.119081 3.329908 113.229842 3 1 3
-4.664449 1.484746 115.991357 46 48 45
-8.235879 1.077766 113.247789 6 2 0
-4.995389 1.130842 113.277290 6 1 0
-1.280605 -0.184537 113.497141 6 2 1
-3.997520 3.874469 113.322611 9 0 1
-10.259656 -1.802227 160.517986 254 254 249
-12.589400 -1.752800 160.282930 231 228 201
-6.355063 -0.368231 113.262400 11 2 0
-4.572362 -0.678170 113.339160 5 1 1
-11.341006 -1.712591 160.407895 218 202 157
-6.671713 1.683550 115.364477 46 48 45
-4.535249 1.472723 113.597527 46 48 45
-1.475482 1.858831 113.143497 46 48 44
-2.872315 -0.886123 113.413886 10 1 0
-3.223602 3.984044 113.361000 3 1 5
-4.399213 1.628910 113.294140 251 253 250
-7.738852 3.816177 113.178239 218 240 99
-11.198196 -1.804585 160.463527 252 253 240
-10.334393 -1.713057 160.521247 254 255 236
-5.339759 0.068742 8.490486 46 48 45
-12.470236 -1.768603 160.274922 222 200 141
-4.830718 1.665211 113.746748 46 48 45
-4.458286 3.803158 113.308981 9 1 0
-5.734244 -0.593823 113.286873 15 1 0
-5.176490 1.307396 113.284479 8 2 0
-4.557817 1.629160 113.288575 46 48 45
-5.252984 0.805286 113.273121 3 3 1
-3.325262 -0.732210 113.371399 73 86 68
-12.589407 -1.733686 160.265176 253 254 246
-8.779561 -1.777581 160.592827 221 206 151
-3.982051 3.921130 113.321736 8 1 1
-12.426360 -1.789966 160.280695 255 248 239
-6.547074 3.329473 113.218658 1 0 7
-11.336361 -1.752037 160.409271 217 204 184
-2.331412 1.205132 113.423288 5 3 1
-8.150387 2.215195 137.445154 46 48 45
-3.948857 1.675872 114.638893 46 48 45
-5.331612 0.741246 113.271097 5 2 0
-7.230807 2.720466 132.832691 197 200 197
-4.313636 2.044068 113.284579 251 224 108
-4.435273 2.355821 113.301249 3 1 5
-12.392654 -1.724686 160.306320 215 205 162
-8.396056 2.035506 142.667671 46 48 45
-5.498606 0.777353 113.267293 5 1 0
-1.995376 1.205614 113.433547 7 1 1
-4.931831 0.852448 113.398260 87 206 90
-3.866056 1.481138 112.858457 46 48 45
-5.497701 3.778218 113.258845 1 3 12
-6.362321 -0.479287 113.260160 12 0 1
-7.229011 0.160760 132.848563 198 199 195
-2.495569 2.959891 109.605799 4 3 2
-12.140925 -1.701508 160.350550 255 252 245
-4.890633 -0.677991 113.307867 5 1 2
-7.323184 1.907196 132.316165 248 250 247
-9.456259 -1.740047 160.586237 252 250 243
-2.798226 1.463547 113.800926 46 48 45
-8.007380 2.481497 113.121738 166 70 125
-4.769710 1.670448 113.712413 46 48 45
-6.115893 3.059548 113.236582 4 1 6
-1.374574 1.990527 113.449177 201 223 201
-4.434857 2.352595 113.294256 5 1 2
-3.991461 3.496005 113.314736 6 1 1
-4.151568 1.635639 114.764272 46 48 45
-10.592547 -1.700079 160.465054 253 250 243
-7.620601 1.823006 128.597027 46 48 45
-5.514408 4.008721 113.393384 1 2 12
-4.904464 0.877615 113.314585 104 202 104
-8.462229 2.716498 132.756591 192 199 194
-7.741875 3.815226 113.228479 218 242 95
-5.129073 1.212676 113.270619 6 1 0
-5.575163 -0.440115 113.283487 189 184 173
-4.584543 2.793951 82.060877 181 115 117
-10.333112 -1.770037 158.242841 255 253 244
0.408461 2.321866 160.747289 251 253 250
-3.804900 1.404562 111.130235 46 48 45
0.190450 2.074685 160.685431 46 48 45
-10.634473 -1.792718 160.484237 218 204 159
-10.250564 -1.729607 160.516297 252 248 247
-4.927738 2.524816 174.434312 46 48 45
-4.310849 1.852953 114.536661 46 48 45
-3.055679 -0.655167 113.401438 9 1 0
-4.209161 1.257066 113.305120 7 3 1
-4.544580 1.235943 113.291202 208 190 156
-7.611351 1.914933 133.345138 46 48 45
-7.354506 1.905549 132.561739 251 253 250
-9.547198 -1.784266 160.548305 217 201 164
-8.443243 -1.722207 160.667647 226 202 143
-1.316670 2.058325 113.405322 197 231 207
-9.455583 -1.760199 160.595769 254 254 245
-8.643662 -1.721152 160.673736 224 202 142
-2.115719 1.667317 113.881226 46 48 45
-1.023569 2.149415 113.319401 201 183 164
-7.740490 3.815121 113.213581 219 240 97
-8.518058 -1.493104 139.949473 230 201 131
-6.437828 3.424738 113.231107 1 0 7
-4.531298 3.953169 113.298343 8 0 0
-5.733624 -0.286325 113.269900 6 1 1
-11.949468 -1.721416 160.350856 254 253 245
-4.209744 1.255296 113.303147 5 3 0
-9.343369 -1.704524 160.593275 222 200 160
-1.129857 2.009571 113.394523 199 185 165
-7.304437 3.024234 113.222190 196 180 181
-6.278420 3.438945 113.237686 1 0 10
-10.264542 -1.737654 160.170985 253 252 242
-5.273527 1.003148 113.267362 3 2 0
-7.194747 0.126056 132.852786 3 1 3
-2.829734 -0.762408 113.392204 8 1 0
-5.068538 1.258053 113.220090 187 188 153
-7.203995 1.449221 116.014629 46 48 45
-12.173880 -1.710445 160.292976 217 200 162
-1.399139 1.815556 127.303959 46 48 45
-2.304494 1.341045 113.399255 58 235 210
-9.369409 -1.726255 160.593027 251 254 247
-5.470766 3.980240 113.286061 0 2 4
-6.671713 1.683550 115.364477 46 48 45
-7.680322 1.873174 130.338583 251 253 250
-3.233306 3.956074 113.363308 4 1 11
-5.433148 3.870999 113.270787 3 1 2
-7.231278 1.539288 132.838781 197 199 197
-9.877046 -1.689844 160.533280 252 253 244
-10.806817 -1.721264 160.459870 233 199 130
-7.144306 1.907979 133.091741 46 48 45
-6.092884 3.273153 113.232216 2 1 7
-7.394444 2.967380 113.212463 227 111 199
-2.056201 1.672272 113.852292 46 48 45
-10.289125 -1.773700 160.477187 222 207 154
-5.252933 -1.028865 113.305401 2 5 0
-5.148678 1.239958 113.271731 6 1 0
-5.561197 3.894396 113.260997 56 169 230
-3.884049 3.692143 113.288253 186 175 179
-1.993224 1.208093 113.437631 4 4 4
-11.721479 -1.786138 160.365030 250 251 243
-10.268638 -1.749979 160.528686 253 249 244
-11.987990 -1.710883 160.344077 219 201 162
-8.889897 -1.799050 160.647687 252 249 233
-9.183578 1.445651 156.322258 1 1 2
-10.524086 -1.721416 163.323896 249 252 250
-6.565236 3.082153 113.232859 1 1 5
-8.108311 2.221871 137.782126 46 48 45
-7.141694 1.539694 132.839842 204 191 162
-3.108222 -0.858048 113.383960 6 1 1
-4.019082 1.947543 113.311323 5 1 0
-11.316154 -1.737571 160.421907 249 253 252
-8.242983 -1.742931 160.686424 220 201 154
-10.293307 -1.802356 160.522915 253 250 245
-9.277367 -1.737128 160.580764 223 204 153
-5.456951 -1.027782 113.307806 2 5 0
-4.073107 1.472521 113.751655 46 48 45
-1.648873 1.828047 112.075754 46 48 45
-6.138331 -0.319286 113.264564 12 0 0
-3.681876 -1.091903 113.306065 76 87 69
-4.106924 1.628651 113.307674 46 48 45
-3.482744 3.497073 113.337324 6 0 0
-5.577801 3.764137 113.208444 3 0 5
-10.706351 -1.749008 160.480144 234 227 192
-4.507407 3.873722 113.297584 6 1 1
-11.772034 -1.728693 160.358994 250 250 243
-4.571426 -0.677251 113.338682 5 1 1
-3.970564 1.685216 115.423001 46 48 45
-7.105780 1.746629 119.085055 46 48 45
-6.464732 2.972716 113.228270 5 1 8
-4.405210 3.756848 113.300399 10 2 1
-4.295345 1.173918 113.299667 49 224 113
-4.370975 1.105211 115.583774 6 2 1
-3.689375 1.459381 114.776170 46 48 45
-12.359424 -1.704685 160.288786 255 255 250
-8.264947 1.095904 113.240181 8 2 0
-8.375966 1.906426 132.280455 248 250 247
-9.393420 2.327040 160.550266 46 48 45
-6.362547 -0.385353 113.263143 11 0 0
-4.570926 -0.998401 113.338286 6 1 2
-4.892698 -0.998667 113.329719 10 2 0
-5.065103 1.155510 113.273434 8 1 0
-3.992511 3.496805 113.320573 6 1 1
-5.427071 -0.286421 113.284474 4 1 1
-8.677735 -1.807488 160.634319 252 252 247
-12.674205 -1.695974 160.260450 211 202 162
-11.331740 -1.750073 160.359748 220 208 189
-1.246927 2.097476 113.669821 196 186 166
-8.461834 0.164377 132.794673 198 199 198
-4.832245 1.861177 115.375091 46 48 45
-5.358173 1.225538 112.611181 209 191 155
-2.983990 1.478230 111.999317 46 48 45
-2.854108 -0.702541 113.408257 8 1 1
-3.085961 -0.888614 113.392697 8 1 0
-4.266810 1.629046 113.302037 249 251 248
-7.201856 1.906090 132.575946 249 251 248
-9.733287 -1.803709 160.579545 250 255 246
-9.619337 1.897770 165.165977 9 2 0
-8.715024 2.396814 132.385998 200 185 162
-11.270614 -1.725052 160.415839 224 205 148
-4.210395 1.254329 113.311690 4 2 1
-4.891734 -0.997243 113.333830 8 2 1
-1.853357 1.631701 113.428110 46 48 45
-6.437864 2.956855 113.233126 4 1 5
-5.733667 -0.593039 113.278180 11 1 0
-10.747601 -1.738790 160.476883 254 252 238
-12.239858 -1.740117 160.303738 227 203 157
-2.330953 1.204857 113.398315 3 5 1
-11.294788 -1.792499 160.413982 255 252 246
-8.923668 -1.715263 160.703627 220 204 163
-6.194053 3.404751 113.228887 1 0 4
-3.992201 2.987220 113.319604 5 1 0
-3.032617 1.852206 114.679443 46 48 45
-3.483494 3.496300 113.337042 6 0 0
-7.358667 2.971751 113.194443 200 176 179
-9.079485 -1.584049 144.908786 217 198 154
-7.393883 2.975042 113.223107 232 106 207
-12.717496 -1.714892 160.258654 251 253 248
-4.904525 0.877562 113.327566 105 201 103
-1.994795 1.205341 113.439942 9 2 0
-1.042349 2.093553 113.520608 3 3 1
-10.247061 -1.773773 160.490899 253 255 246
-5.269228 0.781273 113.268762 3 2 0
-3.280507 3.893239 113.348684 6 0 11
-6.273206 -0.297114 113.252667 16 1 0
-8.464002 2.719111 132.778954 194 199 195
-4.162616 3.957437 113.364476 107 110 217
-8.536092 -1.757180 160.652830 230 201 133
-5.560487 3.903102 113.261075 56 169 228
-8.595062 -1.725803 160.667424 252 255 244
-2.722774 2.739976 113.394125 2 2 1
-3.927041 3.687618 113.195054 186 175 180
-4.316463 1.679539 114.594744 46 48 45
-6.464930 3.408728 113.231574 2 1 8
-6.223502 -0.430927 113.263334 229 105 138
-3.992133 3.496772 113.314753 6 1 1
-3.686517 -1.090768 113.386385 78 85 63
-12.219140 -1.697087 160.320933 255 249 235
-11.718153 -1.691816 160.376474 252 248 238
-2.549412 1.435809 113.390466 46 48 45
-4.907702 0.872480 113.271984 90 204 103
-5.470971 1.022868 113.260860 4 2 0
-2.276683 1.666114 113.867300 251 253 250
-8.292095 3.330962 113.230509 244 244 232
-4.755004 1.212736 113.285866 7 1 0
-8.672123 1.913744 133.299957 46 48 45
-3.686579 -1.090866 113.387442 78 86 65
-8.593443 -1.769868 160.655744 255 254 240
-12.231502 -1.749129 160.309138 213 193 155
-9.506564 -1.724771 160.567914 255 254 243
-10.892034 -1.777725 160.457312 209 202 164
-12.082068 -1.728758 160.322730 232 201 137
-10.292624 -1.761528 160.540177 255 253 250
-2.948305 1.858697 114.727677 46 48 45
-2.475834 1.821563 112.092704 46 48 45
-6.137762 -0.545322 113.268304 10 0 0
-4.072253 2.256218 108.637708 4 1 3
-5.488104 -0.798458 113.329201 226 201 138
-7.080775 1.915839 133.373147 46 48 45
-4.498200 1.624391 113.303664 46 48 45
-12.643527 -1.736814 160.262742 246 248 242
-1.286996 2.055056 113.439904 195 186 164
-6.862526 1.458981 114.361839 46 48 45
-9.244065 -1.755097 160.608609 253 254 244
-1.282702 -0.731778 113.546935 8 1 0
-1.642250 1.679225 114.745889 46 48 45
-1.383903 1.992402 114.025458 202 219 200
-0.969100 2.017181 113.770697 147 223 66
-4.185563 3.718643 113.303191 7 2 1
-8.958005 -1.572029 141.579183 213 201 160
-7.396084 2.966521 113.206718 229 110 205
-8.402171 -1.724010 160.661047 255 255 243
-9.799638 -1.751172 160.543271 229 205 131
-10.323131 -1.693900 160.582717 250 252 248
-4.174736 3.905992 113.305951 183 53 74
-8.462702 2.727104 132.777202 194 199 195
-8.189812 1.054395 113.246686 5 0 0
-2.646452 1.294161 113.404179 208 190 156
